Coordinates
version=1
nRows=31
nColumns=38
inDegrees=no

Units are S.I. units (second, meters, Newtons, ...)
If the header above contains a line with 'inDegrees', this indicates whether rotational values are in degrees (yes) or radians (no).

endheader
time	pelvis_tilt	pelvis_list	pelvis_rotation	pelvis_tx	pelvis_ty	pelvis_tz	hip_flexion_r	hip_adduction_r	hip_rotation_r	knee_angle_r	ankle_angle_r	subtalar_angle_r	mtp_angle_r	hip_flexion_l	hip_adduction_l	hip_rotation_l	knee_angle_l	ankle_angle_l	subtalar_angle_l	mtp_angle_l	lumbar_extension	lumbar_bending	lumbar_rotation	arm_flex_r	arm_add_r	arm_rot_r	elbow_flex_r	pro_sup_r	wrist_flex_r	wrist_dev_r	arm_flex_l	arm_add_l	arm_rot_l	elbow_flex_l	pro_sup_l	wrist_flex_l	wrist_dev_l
0.66	-0.0807124	1.24275	-1.46973	0.569998	1.74571	1.02317	-0.292026	0.0777201	-0.272168	0.575697	-0.0283199	0	0	0.107827	-0.114324	-0.178217	0.353871	-0.162098	0	0	-0.488871	0.235003	0.311916	-0.160241	-0.514012	-0.246682	1.76839	0.57948	0	0	0.499348	-0.379766	0.45153	1.02598	0.660906	0	0
0.67	-0.0875067	1.24378	-1.46275	0.571556	1.73587	1.02172	-0.306953	0.07981	-0.270536	0.5638	-0.0244723	0	0	0.101653	-0.114148	-0.172925	0.316913	-0.170556	0	0	-0.485419	0.237091	0.309968	-0.159358	-0.51608	-0.24348	1.76727	0.571698	0	0	0.49826	-0.379854	0.450378	1.02527	0.662588	0	0
0.68	-0.0949708	1.24547	-1.45661	0.573034	1.72589	1.02012	-0.320323	0.0809784	-0.267472	0.554563	-0.0214937	0	0	0.0969608	-0.11455	-0.172339	0.287816	-0.176146	0	0	-0.481384	0.238706	0.309009	-0.158211	-0.515991	-0.241248	1.76573	0.572491	0	0	0.496582	-0.380324	0.449	1.02465	0.66316	0	0
0.69	-0.102122	1.24697	-1.45211	0.574427	1.71583	1.01846	-0.333049	0.0807235	-0.264029	0.548173	-0.0189171	0	0	0.0923051	-0.115296	-0.174295	0.26552	-0.18147	0	0	-0.478134	0.239458	0.309356	-0.157286	-0.515702	-0.239376	1.76455	0.573781	0	0	0.494695	-0.38056	0.446978	1.02466	0.662107	0	0
0.7	-0.109717	1.24886	-1.44854	0.575735	1.70568	1.0167	-0.344293	0.0791908	-0.260807	0.54428	-0.0163927	0	0	0.0884743	-0.116553	-0.178442	0.250352	-0.185532	0	0	-0.474916	0.239601	0.310778	-0.156277	-0.514853	-0.23772	1.76339	0.575702	0	0	0.492408	-0.381094	0.444588	1.02514	0.661647	0	0
0.71	-0.11893	1.25159	-1.44415	0.577052	1.69547	1.01475	-0.352902	0.0765758	-0.25995	0.543777	-0.0160449	0	0	0.0871851	-0.11875	-0.184525	0.244868	-0.18555	0	0	-0.471049	0.239869	0.313085	-0.155545	-0.514209	-0.236166	1.76252	0.573235	0	0	0.490188	-0.38199	0.443092	1.02566	0.661017	0	0
0.72	-0.12776	1.25313	-1.441	0.578357	1.68534	1.01282	-0.361233	0.0729155	-0.261196	0.545427	-0.0144407	0	0	0.0845473	-0.120908	-0.190907	0.243656	-0.187846	0	0	-0.469147	0.239763	0.315989	-0.153919	-0.513662	-0.234339	1.76183	0.57411	0	0	0.488149	-0.383058	0.441041	1.02667	0.661011	0	0
0.73	-0.137511	1.25466	-1.4377	0.579687	1.67526	1.01081	-0.367523	0.068501	-0.264258	0.550317	-0.0133053	0	0	0.0832999	-0.123858	-0.198847	0.250871	-0.189435	0	0	-0.467822	0.239703	0.320006	-0.152664	-0.513657	-0.232894	1.76192	0.574785	0	0	0.486573	-0.383842	0.439341	1.02757	0.661162	0	0
0.74	-0.147622	1.25689	-1.43505	0.581046	1.66509	1.00871	-0.371429	0.0631803	-0.266594	0.558388	-0.0122841	0	0	0.0842655	-0.127593	-0.209298	0.267011	-0.190753	0	0	-0.466031	0.239218	0.32524	-0.152202	-0.514047	-0.231686	1.76231	0.57551	0	0	0.485075	-0.38412	0.437589	1.02811	0.661447	0	0
0.75	-0.154086	1.25957	-1.43633	0.58253	1.65475	1.00661	-0.373762	0.0559398	-0.267373	0.569637	-0.0111527	0	0	0.0863998	-0.130498	-0.221531	0.2903	-0.191516	0	0	-0.463776	0.23699	0.331031	-0.152952	-0.513254	-0.232061	1.76256	0.583037	0	0	0.484298	-0.384108	0.437137	1.02818	0.664187	0	0
0.76	-0.0613305	1.2923	-1.59391	0.578422	1.63867	1.00547	-0.339945	-0.00565031	-0.218969	0.602537	-0.00309276	0	0	0.0805289	-0.103924	-0.324515	0.268324	-0.217317	0	0	-0.424996	0.17727	0.382106	-0.173443	-0.497146	-0.235137	1.74363	0.594218	0	0	0.472834	-0.375783	0.438816	1.00806	0.672978	0	0
0.77	-0.0668549	1.29335	-1.59499	0.579976	1.62818	1.0034	-0.341991	-0.0118486	-0.21235	0.61812	-0.0021432	0	0	0.0790719	-0.106544	-0.330139	0.295582	-0.217838	0	0	-0.424356	0.1749	0.388249	-0.176012	-0.495541	-0.237756	1.74538	0.600552	0	0	0.4736	-0.375929	0.440167	1.00821	0.675779	0	0
0.78	-0.073659	1.29305	-1.59499	0.581622	1.61752	1.00148	-0.344919	-0.0172658	-0.200885	0.635037	-0.00361638	0	0	0.0751058	-0.109034	-0.336918	0.321659	-0.215991	0	0	-0.424912	0.1728	0.393755	-0.177848	-0.494955	-0.238663	1.74675	0.605212	0	0	0.473348	-0.376823	0.440739	1.0096	0.677427	0	0
0.79	-0.0718299	1.29073	-1.60349	0.583445	1.60685	1.00004	-0.34865	-0.0250589	-0.18648	0.654186	-0.00762329	0	0	0.0677413	-0.106876	-0.345915	0.334754	-0.220943	0	0	-0.427188	0.168021	0.3972	-0.177659	-0.494432	-0.237516	1.74624	0.608642	0	0	0.472481	-0.378282	0.440286	1.01126	0.678703	0	0
0.8	-0.0532568	1.28591	-1.62769	0.585391	1.5964	0.99937	-0.352558	-0.0375184	-0.171546	0.676859	-0.0157102	0	0	0.0597635	-0.098668	-0.358216	0.3376	-0.241271	0	0	-0.432481	0.157811	0.397637	-0.175156	-0.492827	-0.234984	1.74381	0.612859	0	0	0.471898	-0.380094	0.438413	1.01304	0.680223	0	0
0.81	-0.0239692	1.28059	-1.66042	0.587432	1.58612	0.999275	-0.354209	-0.0519018	-0.155121	0.703298	-0.0275134	0	0	0.0560122	-0.0892069	-0.369405	0.349621	-0.268106	0	0	-0.438414	0.144238	0.395202	-0.17201	-0.489726	-0.232365	1.74033	0.61752	0	0	0.471784	-0.381841	0.435815	1.0144	0.682508	0	0
0.82	0.00508286	1.27691	-1.69059	0.589722	1.57579	0.999372	-0.351486	-0.0646277	-0.135815	0.733768	-0.0423096	0	0	0.0566482	-0.0817919	-0.37492	0.374944	-0.285304	0	0	-0.442191	0.13171	0.391569	-0.17065	-0.485963	-0.231439	1.73723	0.621711	0	0	0.472005	-0.38241	0.433618	1.01428	0.685223	0	0
0.83	0.0284641	1.2743	-1.71364	0.592314	1.56536	0.999666	-0.345075	-0.0743748	-0.113616	0.768051	-0.0627012	0	0	0.0599724	-0.0769192	-0.377253	0.409505	-0.290108	0	0	-0.444584	0.122469	0.387972	-0.171295	-0.482461	-0.232175	1.73508	0.626323	0	0	0.472033	-0.381415	0.431704	1.01264	0.688766	0	0
0.84	0.0435519	1.27264	-1.72814	0.595095	1.55477	1.00022	-0.334873	-0.0806255	-0.0886035	0.806208	-0.101232	0	0	0.0648959	-0.0744282	-0.378781	0.447666	-0.285421	0	0	-0.445922	0.116817	0.385756	-0.174043	-0.47681	-0.236379	1.73326	0.647596	0	0	0.471333	-0.37817	0.428688	1.00909	0.696507	0	0
0.85	0.0494918	1.26739	-1.73368	0.597952	1.54431	1.00138	-0.326414	-0.0838824	-0.0628567	0.846002	-0.128379	0	0	0.0623093	-0.0717182	-0.373178	0.477762	-0.28164	0	0	-0.452063	0.113895	0.384421	-0.177192	-0.477257	-0.237753	1.73341	0.644676	0	0	0.471242	-0.375578	0.428285	1.00658	0.697485	0	0
0.86	0.0486258	1.26174	-1.73375	0.600699	1.53404	1.0029	-0.314599	-0.0846595	-0.0358049	0.889826	-0.170535	0	0	0.0549407	-0.0693093	-0.363579	0.498833	-0.276645	0	0	-0.459746	0.112587	0.385476	-0.181284	-0.47907	-0.239708	1.73442	0.642412	0	0	0.471063	-0.372343	0.427904	1.00446	0.698848	0	0
0.87	0.0445624	1.25586	-1.73198	0.603248	1.52401	1.00465	-0.29901	-0.083995	-0.00960025	0.937495	-0.212762	0	0	0.0422573	-0.0669025	-0.355098	0.507511	-0.274052	0	0	-0.468505	0.111903	0.387281	-0.184066	-0.477831	-0.24146	1.73393	0.658469	0	0	0.470031	-0.370129	0.427161	1.00383	0.700085	0	0
0.88	0.0400389	1.25271	-1.73087	0.605558	1.51415	1.00627	-0.276493	-0.0815203	0.0159319	0.989781	-0.271203	0	0	0.0294845	-0.0645331	-0.350158	0.507708	-0.273208	0	0	-0.474604	0.111131	0.38998	-0.186734	-0.478726	-0.243052	1.73466	0.66888	0	0	0.46857	-0.368988	0.427216	1.00413	0.7009	0	0
0.89	0.0370063	1.25126	-1.73185	0.607787	1.50445	1.00762	-0.249369	-0.0779222	0.0395067	1.04619	-0.302195	0	0	0.0174191	-0.0614047	-0.349456	0.504007	-0.272423	0	0	-0.478644	0.110072	0.391665	-0.187775	-0.482181	-0.241063	1.73538	0.665664	0	0	0.466161	-0.370179	0.428117	1.00638	0.698939	0	0
0.9	0.0348454	1.24934	-1.73362	0.610011	1.49497	1.00887	-0.221087	-0.0735115	0.0602636	1.10387	-0.322208	0	0	0.00405175	-0.0560336	-0.34781	0.497963	-0.26923	0	0	-0.482829	0.108988	0.39182	-0.186868	-0.485213	-0.23803	1.73597	0.663653	0	0	0.46344	-0.372918	0.429276	1.00947	0.69598	0	0
0.91	0.0332357	1.24548	-1.73577	0.612177	1.48564	1.01023	-0.194239	-0.068672	0.0777746	1.16024	-0.332895	0	0	-0.0116525	-0.0495557	-0.348002	0.492865	-0.263402	0	0	-0.489054	0.107686	0.391371	-0.185438	-0.487287	-0.235671	1.73742	0.662367	0	0	0.461284	-0.376214	0.430996	1.01266	0.692517	0	0
0.92	0.0317356	1.23927	-1.73691	0.614305	1.47647	1.01188	-0.170844	-0.0632345	0.0913137	1.21247	-0.331513	0	0	-0.0299668	-0.0422705	-0.34895	0.489508	-0.256148	0	0	-0.497816	0.106539	0.389792	-0.183686	-0.488008	-0.234339	1.73955	0.66248	0	0	0.460069	-0.379321	0.432887	1.01492	0.689366	0	0
0.93	0.027787	1.2314	-1.7336	0.616472	1.46743	1.01385	-0.150989	-0.0562127	0.100199	1.26062	-0.322489	0	0	-0.0497468	-0.0362241	-0.350715	0.488025	-0.249933	0	0	-0.508255	0.10673	0.386964	-0.181958	-0.487838	-0.233953	1.74181	0.663859	0	0	0.460098	-0.381534	0.434864	1.0155	0.687056	0	0
0.94	0.0201956	1.22319	-1.72432	0.618653	1.45851	1.01597	-0.133216	-0.0471618	0.104561	1.30547	-0.288099	0	0	-0.0696364	-0.0323993	-0.350252	0.486853	-0.241883	0	0	-0.519034	0.109226	0.383341	-0.18099	-0.488225	-0.23383	1.7447	0.655274	0	0	0.462128	-0.383919	0.440492	1.01497	0.678005	0	0
0.95	0.00864176	1.21616	-1.70866	0.620805	1.44964	1.01812	-0.114509	-0.0356914	0.10536	1.34718	-0.269037	0	0	-0.0878863	-0.031908	-0.347165	0.485193	-0.236833	0	0	-0.528312	0.114555	0.378566	-0.180014	-0.486599	-0.234762	1.74669	0.654739	0	0	0.4641	-0.384571	0.443612	1.01229	0.674545	0	0
0.96	-0.00535041	1.2106	-1.68862	0.622891	1.44086	1.02025	-0.0943285	-0.0219353	0.104163	1.38566	-0.254427	0	0	-0.103845	-0.0340594	-0.34209	0.483199	-0.233258	0	0	-0.535601	0.121924	0.372666	-0.178708	-0.484158	-0.235522	1.74733	0.654554	0	0	0.466093	-0.38449	0.445807	1.00827	0.671693	0	0
